<svg width="20" height="20" viewBox="0 0 20 20" fill="none" xmlns="http://www.w3.org/2000/svg">
<circle cx="10" cy="10" r="10" fill="#B8BECA"/>
<path d="M16 11.2731L12.9154 12.0307L10.0234 11.4421L7.0624 12.0307L4 11.2696V10.8636C4 10.3935 4.18964 9.94258 4.52721 9.61013C4.86477 9.27768 5.32261 9.09091 5.8 9.09091H14.2C14.6774 9.09091 15.1352 9.27768 15.4728 9.61013C15.8104 9.94258 16 10.3935 16 10.8636V11.2731ZM16 12.4922V15H4V12.4886L7.0342 13.242L10.021 12.6488L12.9364 13.242L16 12.4922ZM8.2 7.31818H11.8V8.5H8.2V7.31818ZM10 6.96364C9.52261 6.96364 9.06477 6.77687 8.72721 6.44442C8.38964 6.11197 8.2 5.66107 8.2 5.19091C8.2 4.53795 8.8 3.47432 10 2C11.2 3.47432 11.8 4.53795 11.8 5.19091C11.8 5.66107 11.6104 6.11197 11.2728 6.44442C10.9352 6.77687 10.4774 6.96364 10 6.96364V6.96364Z" fill="white"/>
</svg>
