<svg width="20" height="20" viewBox="0 0 20 20" fill="none" xmlns="http://www.w3.org/2000/svg">
<circle cx="10" cy="10" r="10" fill="#B8BECA"/>
<path d="M9.49992 13.0417C9.87564 13.0417 10.236 12.8925 10.5017 12.6268C10.7673 12.3611 10.9166 12.0008 10.9166 11.625C10.9166 11.2493 10.7673 10.889 10.5017 10.6233C10.236 10.3576 9.87564 10.2084 9.49992 10.2084C9.1242 10.2084 8.76386 10.3576 8.49818 10.6233C8.23251 10.889 8.08325 11.2493 8.08325 11.625C8.08325 12.0008 8.23251 12.3611 8.49818 12.6268C8.76386 12.8925 9.1242 13.0417 9.49992 13.0417ZM13.7499 6.66671C14.1256 6.66671 14.486 6.81596 14.7517 7.08164C15.0173 7.34732 15.1666 7.70765 15.1666 8.08337V15.1667C15.1666 15.5424 15.0173 15.9028 14.7517 16.1684C14.486 16.4341 14.1256 16.5834 13.7499 16.5834H5.24992C4.8742 16.5834 4.51386 16.4341 4.24818 16.1684C3.98251 15.9028 3.83325 15.5424 3.83325 15.1667V8.08337C3.83325 7.70765 3.98251 7.34732 4.24818 7.08164C4.51386 6.81596 4.8742 6.66671 5.24992 6.66671H5.95825V5.25004C5.95825 4.31073 6.33139 3.4099 6.99558 2.7457C7.65977 2.08151 8.56061 1.70837 9.49992 1.70837C9.96502 1.70837 10.4256 1.79998 10.8553 1.97797C11.285 2.15595 11.6754 2.41683 12.0043 2.7457C12.3331 3.07458 12.594 3.46501 12.772 3.8947C12.95 4.3244 13.0416 4.78494 13.0416 5.25004V6.66671H13.7499ZM9.49992 3.12504C8.93633 3.12504 8.39583 3.34892 7.99732 3.74744C7.5988 4.14595 7.37492 4.68646 7.37492 5.25004V6.66671H11.6249V5.25004C11.6249 4.68646 11.401 4.14595 11.0025 3.74744C10.604 3.34892 10.0635 3.12504 9.49992 3.12504Z" fill="white"/>
</svg>
