<svg width="22" height="28" viewBox="0 0 22 28" fill="none" xmlns="http://www.w3.org/2000/svg">
<path d="M14.5354 17.5543C14.7876 17.5895 15.0406 17.6189 15.2941 17.6425C16.5268 17.7559 18.1312 17.7617 19.5275 17.2925C20.2685 17.0427 21.009 16.2722 21.3317 15.3364C21.6117 14.5187 21.5738 13.5649 20.9789 12.6945L20.8156 12.4556L20.9414 12.195C21.0292 12.0131 21.099 11.8216 21.1543 11.6287C21.2756 11.1988 21.3345 10.7168 21.3345 10.2412C21.3345 9.76562 21.2756 9.28354 21.1543 8.85357C21.0921 8.63658 21.0138 8.42535 20.9109 8.231L20.7986 8.01886L20.8939 7.79856C21.1217 7.27213 21.0498 6.64503 20.8738 6.11224C20.6926 5.5856 20.4278 5.09243 20.0899 4.65203L19.925 4.43714L20.0149 4.18164C20.0882 3.97345 20.1206 3.74606 20.1206 3.51943C20.1206 3.06982 19.9897 2.58405 19.7391 2.14139L19.7388 2.14091C19.2338 1.24639 18.2259 0.5 16.7619 0.5H10.5864C9.56815 0.5 8.80564 0.637016 8.16868 0.858921C7.60491 1.06709 7.06605 1.33868 6.56228 1.6686L6.56232 1.66866L6.55514 1.67319L6.47045 1.72663L6.47047 1.72665L6.46555 1.72968C5.54843 2.2936 4.60071 2.87424 2.60791 3.08688C1.473 3.20984 0.5 4.1281 0.5 5.34326V12.4676C0.5 13.6834 1.47865 14.5738 2.52683 14.8619L2.52726 14.8621C4.14896 15.3094 5.50622 16.3697 6.53002 17.5235L6.53048 17.5241C7.55562 18.6827 8.21704 19.9017 8.4619 20.6116L8.46221 20.6124C8.83453 21.6984 9.11519 23.4667 9.24325 25.3537L9.2444 25.3707V25.3714C9.34889 26.7497 10.6397 27.7721 11.9881 27.4338C11.9884 27.4338 11.9887 27.4337 11.989 27.4336L12.4477 27.3165L12.4488 27.3162C13.114 27.148 13.6834 26.6618 13.8739 25.9531C14.2494 24.5473 14.7855 21.6167 13.9795 18.1632L13.8139 17.4537L14.5354 17.5543Z" stroke="#2D7581"/>
</svg>
