<svg width="145" height="44" viewBox="0 0 145 44" fill="none" xmlns="http://www.w3.org/2000/svg">
<rect x="1" y="1" width="143" height="42" rx="9" fill="#FF931E" stroke="#FF931E" stroke-width="2"/>
<g clip-path="url(#clip0_116_164)">
<path d="M34.6179 14.0322H31.5V7.5H39.0399C40.5331 7.5 42.2877 7.94654 44.1494 8.67324C46.005 9.3976 47.9346 10.3872 49.7686 11.4439C52.6744 13.118 55.3073 14.94 57.0107 16.1188C57.4605 16.43 57.8454 16.6964 58.1535 16.9034L58.1537 16.9036C59.4692 17.7863 59.9246 18.9349 60.0595 19.87C60.1277 20.3423 60.1135 20.7608 60.0822 21.0604C60.0666 21.2096 60.0469 21.3278 60.0317 21.4066C60.0241 21.4459 60.0176 21.4752 60.0134 21.4935L60.0089 21.5124L60.0085 21.5139L60.0084 21.5143L60.0083 21.5147L60.0082 21.5152L60.0081 21.5154L59.9963 21.5595L59.9929 21.6067C59.7701 24.6795 59.1165 26.2393 58.4943 26.9739C57.9032 27.6717 57.3631 27.615 57.1281 27.5046C57.1226 27.499 57.1089 27.4825 57.0908 27.4438C57.0565 27.3704 57.023 27.2514 57.0013 27.0751C56.9579 26.7219 56.9736 26.2463 57.0234 25.6979C57.0655 25.2348 57.1291 24.746 57.1916 24.2659C57.2025 24.1825 57.2133 24.0993 57.224 24.0166C57.2948 23.4682 57.3602 22.9299 57.3735 22.5015C57.3784 22.3497 57.3839 22.2077 57.389 22.0766C57.3968 21.8767 57.4036 21.7021 57.4056 21.5567C57.4089 21.3132 57.4012 21.0842 57.3455 20.8708C57.223 20.4016 56.8943 20.1268 56.4907 19.7907C56.332 19.6585 56.0971 19.5313 55.8498 19.4139C55.5912 19.2912 55.2773 19.1602 54.9321 19.0266C54.241 18.7591 53.4018 18.4724 52.5805 18.2097C51.7583 17.9467 50.9481 17.7059 50.3131 17.5304C49.996 17.4427 49.7194 17.3705 49.5055 17.3197C49.3988 17.2944 49.3038 17.2736 49.2252 17.2587C49.1593 17.2463 49.0673 17.2304 48.9864 17.2304C48.8259 17.2304 48.6633 17.2883 48.5532 17.3324C48.424 17.3842 48.2789 17.4547 48.1282 17.5348C47.8255 17.6958 47.468 17.9129 47.1121 18.1455C46.4132 18.6023 45.6554 19.1615 45.3116 19.5158C44.8722 19.9684 44.785 20.5499 44.8481 21.0485C44.9105 21.5418 45.1234 22.0116 45.3718 22.3421C45.4646 22.4655 45.6608 22.6822 45.8949 22.9408C45.9585 23.0111 46.0249 23.0844 46.0928 23.1598C46.426 23.5299 46.8317 23.9886 47.2345 24.489C47.6381 24.9904 48.0324 25.5261 48.3451 26.0488C48.6615 26.5777 48.8747 27.0615 48.947 27.4635C49.027 27.9087 48.9913 28.1406 48.9514 28.2474C48.9209 28.3288 48.8893 28.3406 48.8667 28.3487C48.8201 28.3653 48.7462 28.3693 48.6581 28.3559C48.6293 28.3516 48.6036 28.346 48.583 28.3409L48.5694 28.3317C48.5199 28.2982 48.4469 28.2489 48.3533 28.1854C48.166 28.0585 47.8964 27.8751 47.5671 27.6496C46.9085 27.1985 46.0117 26.5792 45.0589 25.906C43.1381 24.5491 41.036 23.0057 40.1643 22.1704C39.7513 21.7747 39.2242 21.0943 38.6544 20.2668C38.0901 19.4472 37.5023 18.5109 36.9681 17.6239C36.4343 16.7376 35.9563 15.9046 35.6117 15.2929C35.4394 14.9872 35.3007 14.737 35.2051 14.5635C35.1573 14.4768 35.1203 14.4092 35.0953 14.3634L35.067 14.3115L35.0598 14.2984L35.0581 14.2951L35.0577 14.2944L35.0576 14.2942L34.6179 14.5322L35.0576 14.2942L34.9158 14.0322H34.6179ZM57.1308 27.5069C57.1309 27.507 57.1303 27.5067 57.1292 27.5056C57.1302 27.5063 57.1307 27.5068 57.1308 27.5069ZM48.538 28.328L48.539 28.3283C48.5374 28.3278 48.5366 28.3275 48.5366 28.3275L48.5366 28.3275L48.538 28.328Z" stroke="white"/>
<path d="M55.0195 20.7856L55.02 20.7859C55.3923 20.9591 55.6116 21.0766 55.7556 21.1969C55.8751 21.2967 55.9411 21.397 55.9808 21.5655C56.0269 21.7617 56.0373 22.0544 55.997 22.538C55.9571 23.0156 55.8725 23.6327 55.7545 24.4611C55.6445 25.2309 55.5267 25.7978 55.4055 26.2124C55.2829 26.6316 55.1648 26.8671 55.0696 26.9955C54.984 27.111 54.9312 27.1226 54.9133 27.1264C54.8734 27.1349 54.805 27.1338 54.6577 27.0965L54.6574 27.0964C54.5621 27.0724 54.5391 27.0485 54.5233 27.0284C54.4959 26.9934 54.4406 26.8948 54.4041 26.6365C54.3296 26.1083 54.3634 25.1647 54.5418 23.4506L54.5418 23.4506C54.6305 22.5983 54.692 21.9738 54.726 21.5095C54.7513 21.1628 54.7627 20.8885 54.7556 20.6656C54.8438 20.7047 54.9324 20.745 55.0195 20.7856Z" stroke="white"/>
<path d="M52.5848 20.0988C52.5843 20.0807 52.5837 20.0624 52.5829 20.044C52.7308 20.1454 52.8643 20.2477 52.9702 20.3457C53.0492 20.4188 53.1012 20.4789 53.1316 20.5238C53.1428 20.5404 53.1489 20.5517 53.1519 20.558C53.1761 20.8839 53.1888 22.4016 53.0476 23.8427C52.9756 24.5777 52.8665 25.2572 52.712 25.7371C52.6337 25.9804 52.5553 26.1344 52.4911 26.2166C52.4827 26.2274 52.4756 26.2357 52.4698 26.242C52.4534 26.2372 52.4438 26.23 52.4348 26.2218C52.4121 26.2014 52.371 26.1502 52.3293 26.0355C52.2423 25.7961 52.1992 25.4132 52.2037 24.8872C52.21 24.1529 52.3037 23.2724 52.4026 22.3432C52.4446 21.9486 52.4875 21.5452 52.5251 21.1405L52.5267 21.1294C52.5289 21.1135 52.5319 21.0909 52.5354 21.0626C52.5424 21.006 52.5515 20.9261 52.56 20.8298C52.577 20.6385 52.5926 20.3757 52.5848 20.0988ZM52.4502 26.2602C52.4502 26.2601 52.4511 26.2593 52.453 26.2583C52.4511 26.2598 52.4502 26.2603 52.4502 26.2602Z" stroke="white"/>
<mask id="path-5-inside-1_116_164" fill="white">
<path d="M66.9405 35.7594H43.9902V36.7451H66.9405V35.7594Z"/>
</mask>
<path d="M43.9902 35.7594V34.7594H42.9902V35.7594H43.9902ZM66.9405 35.7594H67.9405V34.7594H66.9405V35.7594ZM66.9405 36.7451V37.7451H67.9405V36.7451H66.9405ZM43.9902 36.7451H42.9902V37.7451H43.9902V36.7451ZM43.9902 36.7594H66.9405V34.7594H43.9902V36.7594ZM65.9405 35.7594V36.7451H67.9405V35.7594H65.9405ZM66.9405 35.7451H43.9902V37.7451H66.9405V35.7451ZM44.9902 36.7451V35.7594H42.9902V36.7451H44.9902Z" fill="white" mask="url(#path-5-inside-1_116_164)"/>
<mask id="path-7-inside-2_116_164" fill="white">
<path d="M52.4669 31.1221C52.4755 31.3632 52.6401 31.5149 53.0293 31.6362V30.608C52.8938 30.6323 52.6932 30.6884 52.5749 30.8006C52.5218 30.8491 52.4566 30.9386 52.4669 31.1221Z"/>
</mask>
<path d="M52.4669 31.1221L53.4663 31.0866L53.4659 31.0763L53.4653 31.0661L52.4669 31.1221ZM53.0293 31.6362L52.7317 32.5909L54.0293 32.9953V31.6362H53.0293ZM53.0293 30.608H54.0293V29.413L52.853 29.6237L53.0293 30.608ZM52.5749 30.8006L53.2492 31.5391L53.2562 31.5327L53.2631 31.5262L52.5749 30.8006ZM51.4675 31.1576C51.481 31.5373 51.6349 31.8914 51.93 32.1616C52.1811 32.3915 52.4844 32.5138 52.7317 32.5909L53.3269 30.6815C53.2645 30.6621 53.234 30.6483 53.2246 30.6436C53.2151 30.6389 53.241 30.6503 53.2807 30.6866C53.324 30.7263 53.3754 30.7884 53.4141 30.8736C53.4525 30.9581 53.4644 31.0345 53.4663 31.0866L51.4675 31.1576ZM54.0293 31.6362V30.608H52.0293V31.6362H54.0293ZM52.853 29.6237C52.6945 29.6521 52.2341 29.7456 51.8867 30.0751L53.2631 31.5262C53.222 31.5652 53.1878 31.5864 53.1722 31.5953C53.1559 31.6046 53.1476 31.6074 53.1507 31.6062C53.1531 31.6053 53.1602 31.6028 53.1718 31.5998C53.1831 31.5968 53.1949 31.5943 53.2056 31.5924L52.853 29.6237ZM51.9007 30.0621C51.6381 30.3018 51.4404 30.6779 51.4685 31.1781L53.4653 31.0661C53.4675 31.1045 53.4641 31.1912 53.4186 31.2991C53.3722 31.4093 53.3041 31.489 53.2492 31.5391L51.9007 30.0621Z" fill="white" mask="url(#path-7-inside-2_116_164)"/>
<mask id="path-9-inside-3_116_164" fill="white">
<path d="M53.6655 33.0571V34.1247C53.9913 34.0125 54.101 33.7153 54.101 33.594C54.101 33.4029 53.9467 33.2179 53.6655 33.0571Z"/>
</mask>
<path d="M53.6655 33.0571L54.1618 32.189L52.6655 31.3336V33.0571H53.6655ZM53.6655 34.1247H52.6655V35.5268L53.9912 35.0702L53.6655 34.1247ZM52.6655 33.0571V34.1247H54.6655V33.0571H52.6655ZM53.9912 35.0702C54.391 34.9325 54.6684 34.6743 54.8406 34.4127C54.9946 34.1788 55.101 33.8861 55.101 33.594H53.101C53.101 33.4913 53.1207 33.4248 53.129 33.3994C53.1401 33.3656 53.154 33.3375 53.1703 33.3128C53.2062 33.2582 53.2658 33.2047 53.3398 33.1792L53.9912 35.0702ZM55.101 33.594C55.101 32.8331 54.5129 32.3897 54.1618 32.189L53.1693 33.9253C53.2429 33.9674 53.2424 33.9812 53.2144 33.9469C53.1811 33.9062 53.101 33.7839 53.101 33.594H55.101Z" fill="white" mask="url(#path-9-inside-3_116_164)"/>
<path d="M50.4449 34.6832H48.9473C48.4541 34.0145 48.1729 33.2249 48.1729 32.3808C48.1729 30.0775 50.3069 28.1085 53.0705 28.1085C55.8339 28.1085 57.9664 30.0773 57.9664 32.3808C57.9664 33.2248 57.6853 34.0144 57.1933 34.6832H55.5314C55.7436 34.3586 55.8715 33.9823 55.8715 33.597C55.8715 33.0423 55.6308 32.5412 55.2228 32.1407L55.2229 32.1407L55.2193 32.1373C55.0776 32.0009 54.9177 31.8787 54.7425 31.7689L55.002 31.3952L55.6656 30.4399L55.9768 29.9918L55.5034 29.7208L55.2952 29.6015L55.2942 29.601L55.29 29.5985C55.0016 29.4325 54.6458 29.2276 54.1655 29.0976V28.7565V28.2565H53.6655H53.0293H52.5293V28.7565V29.0432C52.1462 29.1325 51.6914 29.3138 51.3191 29.6562L51.3191 29.6562L51.317 29.6582C50.8838 30.0614 50.6595 30.5974 50.6955 31.2001C50.7332 31.9231 51.1232 32.4989 51.758 32.8703C52.0277 33.0315 52.307 33.1318 52.5293 33.1962V33.5024C52.3679 33.4289 52.2008 33.3228 52.0404 33.1698L51.718 32.8625L51.3756 33.1474L50.4497 33.9178L50.0152 34.2793L50.427 34.6664C50.433 34.672 50.4389 34.6776 50.4449 34.6832ZM54.3439 31.5445L54.4355 31.5966C54.3483 31.5527 54.2582 31.5112 54.1655 31.4719V31.4428L54.3439 31.5445Z" stroke="white"/>
</g>
<path d="M77.396 26.7734V28H68.7866V26.7734H77.396ZM69.0288 26.7734V30.7969H67.5366L67.5288 26.7734H69.0288ZM78.7085 26.7734L78.6929 30.7891H77.2007V26.7734H78.7085ZM75.9194 16.625V17.8594H70.9351V16.625H75.9194ZM77.2163 16.625V28H75.7163V16.625H77.2163ZM70.4194 16.625H71.9272L71.6929 21.2031C71.6616 21.8906 71.5965 22.526 71.4976 23.1094C71.3986 23.6875 71.2762 24.2161 71.1304 24.6953C70.9845 25.1745 70.8179 25.6042 70.6304 25.9844C70.4429 26.3594 70.2424 26.6849 70.0288 26.9609C69.8153 27.2318 69.5913 27.4557 69.3569 27.6328C69.1278 27.8047 68.896 27.9271 68.6616 28H67.9741V26.7734H68.4585C68.5939 26.6276 68.7476 26.4167 68.9194 26.1406C69.0965 25.8646 69.271 25.5078 69.4429 25.0703C69.62 24.6276 69.7736 24.0885 69.9038 23.4531C70.0392 22.8177 70.1304 22.0677 70.1772 21.2031L70.4194 16.625ZM79.8804 23.8672V23.6875C79.8804 23.0781 79.9689 22.513 80.146 21.9922C80.3231 21.4661 80.5783 21.0104 80.9116 20.625C81.245 20.2344 81.6486 19.9323 82.1226 19.7188C82.5965 19.5 83.1278 19.3906 83.7163 19.3906C84.3101 19.3906 84.8439 19.5 85.3179 19.7188C85.797 19.9323 86.2033 20.2344 86.5366 20.625C86.8752 21.0104 87.133 21.4661 87.3101 21.9922C87.4871 22.513 87.5757 23.0781 87.5757 23.6875V23.8672C87.5757 24.4766 87.4871 25.0417 87.3101 25.5625C87.133 26.0833 86.8752 26.5391 86.5366 26.9297C86.2033 27.3151 85.7996 27.6172 85.3257 27.8359C84.8569 28.0495 84.3257 28.1562 83.7319 28.1562C83.1382 28.1562 82.6043 28.0495 82.1304 27.8359C81.6564 27.6172 81.2502 27.3151 80.9116 26.9297C80.5783 26.5391 80.3231 26.0833 80.146 25.5625C79.9689 25.0417 79.8804 24.4766 79.8804 23.8672ZM81.3257 23.6875V23.8672C81.3257 24.2891 81.3752 24.6875 81.4741 25.0625C81.5731 25.4323 81.7215 25.7604 81.9194 26.0469C82.1226 26.3333 82.3752 26.5599 82.6772 26.7266C82.9793 26.888 83.3309 26.9688 83.7319 26.9688C84.1278 26.9688 84.4741 26.888 84.771 26.7266C85.0731 26.5599 85.3231 26.3333 85.521 26.0469C85.7189 25.7604 85.8674 25.4323 85.9663 25.0625C86.0705 24.6875 86.1226 24.2891 86.1226 23.8672V23.6875C86.1226 23.2708 86.0705 22.8776 85.9663 22.5078C85.8674 22.1328 85.7163 21.8021 85.5132 21.5156C85.3153 21.224 85.0653 20.9948 84.7632 20.8281C84.4663 20.6615 84.1174 20.5781 83.7163 20.5781C83.3205 20.5781 82.9715 20.6615 82.6694 20.8281C82.3726 20.9948 82.1226 21.224 81.9194 21.5156C81.7215 21.8021 81.5731 22.1328 81.4741 22.5078C81.3752 22.8776 81.3257 23.2708 81.3257 23.6875ZM95.1226 23.2109V24.3828H90.6538V23.2109H95.1226ZM90.9585 19.5469V28H89.5132V19.5469H90.9585ZM96.2944 19.5469V28H94.8413V19.5469H96.2944ZM103.607 26.5547V22.2031C103.607 21.8698 103.539 21.5807 103.404 21.3359C103.274 21.0859 103.076 20.8932 102.81 20.7578C102.544 20.6224 102.216 20.5547 101.826 20.5547C101.461 20.5547 101.141 20.6172 100.865 20.7422C100.594 20.8672 100.38 21.0312 100.224 21.2344C100.073 21.4375 99.9976 21.6562 99.9976 21.8906H98.5522C98.5522 21.5885 98.6304 21.2891 98.7866 20.9922C98.9429 20.6953 99.1668 20.4271 99.4585 20.1875C99.7554 19.9427 100.11 19.75 100.521 19.6094C100.938 19.4635 101.401 19.3906 101.912 19.3906C102.526 19.3906 103.068 19.4948 103.537 19.7031C104.011 19.9115 104.38 20.2266 104.646 20.6484C104.917 21.0651 105.052 21.5885 105.052 22.2188V26.1562C105.052 26.4375 105.076 26.737 105.123 27.0547C105.175 27.3724 105.25 27.6458 105.349 27.875V28H103.841C103.768 27.8333 103.711 27.612 103.669 27.3359C103.628 27.0547 103.607 26.7943 103.607 26.5547ZM103.857 22.875L103.873 23.8906H102.412C102 23.8906 101.633 23.9245 101.31 23.9922C100.987 24.0547 100.716 24.151 100.498 24.2812C100.279 24.4115 100.112 24.5755 99.9976 24.7734C99.883 24.9661 99.8257 25.1927 99.8257 25.4531C99.8257 25.7188 99.8856 25.9609 100.005 26.1797C100.125 26.3984 100.305 26.5729 100.544 26.7031C100.789 26.8281 101.089 26.8906 101.443 26.8906C101.886 26.8906 102.276 26.7969 102.615 26.6094C102.953 26.4219 103.222 26.1927 103.419 25.9219C103.623 25.651 103.732 25.388 103.748 25.1328L104.365 25.8281C104.328 26.0469 104.229 26.2891 104.068 26.5547C103.906 26.8203 103.69 27.0755 103.419 27.3203C103.154 27.5599 102.836 27.7604 102.466 27.9219C102.102 28.0781 101.69 28.1562 101.232 28.1562C100.659 28.1562 100.156 28.0443 99.7241 27.8203C99.297 27.5964 98.9637 27.2969 98.7241 26.9219C98.4897 26.5417 98.3726 26.1172 98.3726 25.6484C98.3726 25.1953 98.4611 24.7969 98.6382 24.4531C98.8153 24.1042 99.0705 23.8151 99.4038 23.5859C99.7371 23.3516 100.138 23.1745 100.607 23.0547C101.076 22.9349 101.599 22.875 102.177 22.875H103.857ZM110.646 19.5469V28H109.193V19.5469H110.646ZM113.482 19.5469V20.7188H106.412V19.5469H113.482Z" fill="white"/>
<defs>
<clipPath id="clip0_116_164">
<rect width="35.942" height="29.7436" fill="white" transform="translate(31 7)"/>
</clipPath>
</defs>
</svg>
