<svg width="87" height="25" viewBox="0 0 87 25" fill="none" xmlns="http://www.w3.org/2000/svg">
<g filter="url(#filter0_b_378_80)">
<rect width="87" height="25" rx="10" fill="#EDECEE" fill-opacity="0.63"/>
<path d="M40.3984 19H38.0234L38.0391 17.7734H40.3984C41.2109 17.7734 41.888 17.6042 42.4297 17.2656C42.9714 16.9219 43.3776 16.4427 43.6484 15.8281C43.9245 15.2083 44.0625 14.4844 44.0625 13.6562V12.9609C44.0625 12.3099 43.9844 11.7318 43.8281 11.2266C43.6719 10.7161 43.4427 10.2865 43.1406 9.9375C42.8385 9.58333 42.4688 9.3151 42.0312 9.13281C41.599 8.95052 41.1016 8.85938 40.5391 8.85938H37.9766V7.625H40.5391C41.2839 7.625 41.9635 7.75 42.5781 8C43.1927 8.24479 43.7214 8.60156 44.1641 9.07031C44.612 9.53385 44.9557 10.0964 45.1953 10.7578C45.4349 11.4141 45.5547 12.1536 45.5547 12.9766V13.6562C45.5547 14.4792 45.4349 15.2214 45.1953 15.8828C44.9557 16.5391 44.6094 17.099 44.1562 17.5625C43.7083 18.026 43.1667 18.3828 42.5312 18.6328C41.901 18.8776 41.1901 19 40.3984 19ZM38.8281 7.625V19H37.3203V7.625H38.8281ZM47.2188 14.8672V14.6875C47.2188 14.0781 47.3073 13.513 47.4844 12.9922C47.6615 12.4661 47.9167 12.0104 48.25 11.625C48.5833 11.2344 48.987 10.9323 49.4609 10.7188C49.9349 10.5 50.4661 10.3906 51.0547 10.3906C51.6484 10.3906 52.1823 10.5 52.6562 10.7188C53.1354 10.9323 53.5417 11.2344 53.875 11.625C54.2135 12.0104 54.4714 12.4661 54.6484 12.9922C54.8255 13.513 54.9141 14.0781 54.9141 14.6875V14.8672C54.9141 15.4766 54.8255 16.0417 54.6484 16.5625C54.4714 17.0833 54.2135 17.5391 53.875 17.9297C53.5417 18.3151 53.138 18.6172 52.6641 18.8359C52.1953 19.0495 51.6641 19.1562 51.0703 19.1562C50.4766 19.1562 49.9427 19.0495 49.4688 18.8359C48.9948 18.6172 48.5885 18.3151 48.25 17.9297C47.9167 17.5391 47.6615 17.0833 47.4844 16.5625C47.3073 16.0417 47.2188 15.4766 47.2188 14.8672ZM48.6641 14.6875V14.8672C48.6641 15.2891 48.7135 15.6875 48.8125 16.0625C48.9115 16.4323 49.0599 16.7604 49.2578 17.0469C49.4609 17.3333 49.7135 17.5599 50.0156 17.7266C50.3177 17.888 50.6693 17.9688 51.0703 17.9688C51.4661 17.9688 51.8125 17.888 52.1094 17.7266C52.4115 17.5599 52.6615 17.3333 52.8594 17.0469C53.0573 16.7604 53.2057 16.4323 53.3047 16.0625C53.4089 15.6875 53.4609 15.2891 53.4609 14.8672V14.6875C53.4609 14.2708 53.4089 13.8776 53.3047 13.5078C53.2057 13.1328 53.0547 12.8021 52.8516 12.5156C52.6536 12.224 52.4036 11.9948 52.1016 11.8281C51.8047 11.6615 51.4557 11.5781 51.0547 11.5781C50.6589 11.5781 50.3099 11.6615 50.0078 11.8281C49.7109 11.9948 49.4609 12.224 49.2578 12.5156C49.0599 12.8021 48.9115 13.1328 48.8125 13.5078C48.7135 13.8776 48.6641 14.2708 48.6641 14.6875ZM58.1719 12.3516V19H56.7266V10.5469H58.0938L58.1719 12.3516ZM57.8281 14.4531L57.2266 14.4297C57.2318 13.8516 57.3177 13.3177 57.4844 12.8281C57.651 12.3333 57.8854 11.9036 58.1875 11.5391C58.4896 11.1745 58.849 10.8932 59.2656 10.6953C59.6875 10.4922 60.1536 10.3906 60.6641 10.3906C61.0807 10.3906 61.4557 10.4479 61.7891 10.5625C62.1224 10.6719 62.4062 10.849 62.6406 11.0938C62.8802 11.3385 63.0625 11.6562 63.1875 12.0469C63.3125 12.4323 63.375 12.9036 63.375 13.4609V19H61.9219V13.4453C61.9219 13.0026 61.8568 12.6484 61.7266 12.3828C61.5964 12.112 61.4062 11.9167 61.1562 11.7969C60.9062 11.6719 60.599 11.6094 60.2344 11.6094C59.875 11.6094 59.5469 11.6849 59.25 11.8359C58.9583 11.987 58.7057 12.1953 58.4922 12.4609C58.2839 12.7266 58.1198 13.0312 58 13.375C57.8854 13.7135 57.8281 14.0729 57.8281 14.4531ZM69.0781 19.1562C68.4896 19.1562 67.9557 19.0573 67.4766 18.8594C67.0026 18.6562 66.5938 18.3724 66.25 18.0078C65.9115 17.6432 65.651 17.2109 65.4688 16.7109C65.2865 16.2109 65.1953 15.6641 65.1953 15.0703V14.7422C65.1953 14.0547 65.2969 13.4427 65.5 12.9062C65.7031 12.3646 65.9792 11.9062 66.3281 11.5312C66.6771 11.1562 67.0729 10.8724 67.5156 10.6797C67.9583 10.487 68.4167 10.3906 68.8906 10.3906C69.4948 10.3906 70.0156 10.4948 70.4531 10.7031C70.8958 10.9115 71.2578 11.2031 71.5391 11.5781C71.8203 11.9479 72.0286 12.3854 72.1641 12.8906C72.2995 13.3906 72.3672 13.9375 72.3672 14.5312V15.1797H66.0547V14H70.9219V13.8906C70.901 13.5156 70.8229 13.151 70.6875 12.7969C70.5573 12.4427 70.349 12.151 70.0625 11.9219C69.776 11.6927 69.3854 11.5781 68.8906 11.5781C68.5625 11.5781 68.2604 11.6484 67.9844 11.7891C67.7083 11.9245 67.4714 12.1276 67.2734 12.3984C67.0755 12.6693 66.9219 13 66.8125 13.3906C66.7031 13.7812 66.6484 14.2318 66.6484 14.7422V15.0703C66.6484 15.4714 66.7031 15.849 66.8125 16.2031C66.9271 16.5521 67.0911 16.8594 67.3047 17.125C67.5234 17.3906 67.7865 17.599 68.0938 17.75C68.4062 17.901 68.7604 17.9766 69.1562 17.9766C69.6667 17.9766 70.099 17.8724 70.4531 17.6641C70.8073 17.4557 71.1172 17.1771 71.3828 16.8281L72.2578 17.5234C72.0755 17.7995 71.8438 18.0625 71.5625 18.3125C71.2812 18.5625 70.9349 18.7656 70.5234 18.9219C70.1172 19.0781 69.6354 19.1562 69.0781 19.1562Z" fill="#D91D43"/>
<mask id="path-3-inside-1_378_80" fill="white">
<path d="M27.7165 14.871H27.719C27.6828 14.0285 27.5375 11.1557 27.1878 9.57172C27.0868 9.11247 26.6598 8.58372 26.119 7.91397C25.6845 7.37547 25.192 6.76472 24.8245 6.11697C24.5305 5.59947 24.097 5.38922 23.6658 5.55597C23.1838 5.74172 22.7928 6.39022 22.7625 7.27297C22.2718 6.72797 21.9513 6.71622 21.6135 6.93622C21.136 7.24672 20.9253 8.18322 21.3993 9.21297C21.6243 9.70197 21.981 9.98622 22.2953 10.2367C22.5315 10.425 22.7353 10.5875 22.8295 10.7935L22.9193 10.9995C22.6893 10.8875 22.4745 10.7857 22.283 10.695C21.8178 10.4747 21.4783 10.377 21.1813 10.377C20.7793 10.377 20.4888 10.5537 20.1213 10.778C19.6598 11.0587 19.0283 11.443 17.7628 11.7625C17.3865 11.8572 17.1235 12.0455 17.003 12.307C16.8825 12.5682 16.9105 12.8795 17.0863 13.2327L17.091 13.242C15.97 13.5197 16.478 14.8947 16.2925 16.2345C16.2438 16.5857 16.1895 16.8605 16.4243 17.2277C17.8918 19.5215 19.667 20.5 22.36 20.5C23.4363 20.5 24.1958 20.474 24.9205 20.1285C25.8255 19.6975 27.4738 17.515 27.7188 15.7422C27.7623 15.4305 27.7595 15.1397 27.7165 14.871ZM23.509 6.35372C23.715 5.75472 24.2465 5.80922 24.4655 6.20772C24.8438 6.89622 25.3553 7.58397 25.802 8.13747C26.2618 8.70647 26.7263 9.28447 26.8025 9.62922C27.045 10.7275 27.1575 12.7142 27.2325 13.934C26.7558 13.309 25.9093 12.7225 25.3363 12.3495C25.258 11.8665 25.108 11.0245 24.853 9.89947C24.6833 9.14672 23.778 8.70822 23.5373 7.65772C23.4263 7.17072 23.3858 6.71222 23.509 6.35372ZM21.8295 8.73922C21.699 8.47522 21.5525 7.47847 21.9225 7.20272C22.2668 6.94597 22.5425 7.44722 22.7873 7.84347C22.902 8.57247 23.3415 9.22097 23.6508 9.59097C23.8918 9.87922 24.0998 10.1277 24.16 10.4162C24.2348 10.7727 24.3368 11.3575 24.409 11.7832C24.1882 11.657 23.9653 11.5346 23.7403 11.416C23.5399 10.9389 23.3248 10.4682 23.0953 10.0045C22.8698 9.54472 22.147 9.38022 21.8295 8.73922ZM24.546 19.39C23.9013 19.698 23.2353 19.7252 22.1858 19.7252C19.7985 19.7252 17.428 18.537 16.685 16.8657C16.5588 16.5822 16.6803 16.1797 16.6803 15.6445C16.6803 14.3635 16.7115 13.6057 17.3603 13.6057C17.6718 13.6057 18.6553 14.3557 18.6553 16.2592L21.0203 17.327C21.7103 16.6195 23.672 15.5057 23.672 15.5057C23.3635 15.1135 23.5303 13.9947 23.5303 13.9947C22.8835 13.9115 21.508 13.2597 21.034 12.348C20.4288 12.8697 17.6175 13.841 17.436 12.6137C17.3823 12.2505 17.7085 12.1225 17.837 12.0902C19.1758 11.7522 19.8228 11.3632 20.2835 11.0827C20.6193 10.878 20.9365 10.7077 21.198 10.7077C21.4173 10.7077 21.7568 10.8175 22.1515 11.0047C23.2733 11.5352 25.1413 12.3702 26.8025 13.8247C26.9573 13.9605 27.154 14.2582 27.2168 14.4497C27.783 16.181 25.4413 18.9615 24.546 19.39ZM23.1365 15.5275C22.6858 15.7657 21.6335 16.3495 21.0025 16.9222L19.2525 15.7942C19.2525 14.8397 19.0453 14.1492 18.7428 13.7025C19.5085 13.6532 20.4558 13.4527 20.9365 13.1955C21.276 13.5495 22.1398 14.3542 23.084 14.482C23.0485 14.7592 23.0253 15.1812 23.1365 15.5275Z"/>
</mask>
<path d="M27.7165 14.871H27.719C27.6828 14.0285 27.5375 11.1557 27.1878 9.57172C27.0868 9.11247 26.6598 8.58372 26.119 7.91397C25.6845 7.37547 25.192 6.76472 24.8245 6.11697C24.5305 5.59947 24.097 5.38922 23.6658 5.55597C23.1838 5.74172 22.7928 6.39022 22.7625 7.27297C22.2718 6.72797 21.9513 6.71622 21.6135 6.93622C21.136 7.24672 20.9253 8.18322 21.3993 9.21297C21.6243 9.70197 21.981 9.98622 22.2953 10.2367C22.5315 10.425 22.7353 10.5875 22.8295 10.7935L22.9193 10.9995C22.6893 10.8875 22.4745 10.7857 22.283 10.695C21.8178 10.4747 21.4783 10.377 21.1813 10.377C20.7793 10.377 20.4888 10.5537 20.1213 10.778C19.6598 11.0587 19.0283 11.443 17.7628 11.7625C17.3865 11.8572 17.1235 12.0455 17.003 12.307C16.8825 12.5682 16.9105 12.8795 17.0863 13.2327L17.091 13.242C15.97 13.5197 16.478 14.8947 16.2925 16.2345C16.2438 16.5857 16.1895 16.8605 16.4243 17.2277C17.8918 19.5215 19.667 20.5 22.36 20.5C23.4363 20.5 24.1958 20.474 24.9205 20.1285C25.8255 19.6975 27.4738 17.515 27.7188 15.7422C27.7623 15.4305 27.7595 15.1397 27.7165 14.871ZM23.509 6.35372C23.715 5.75472 24.2465 5.80922 24.4655 6.20772C24.8438 6.89622 25.3553 7.58397 25.802 8.13747C26.2618 8.70647 26.7263 9.28447 26.8025 9.62922C27.045 10.7275 27.1575 12.7142 27.2325 13.934C26.7558 13.309 25.9093 12.7225 25.3363 12.3495C25.258 11.8665 25.108 11.0245 24.853 9.89947C24.6833 9.14672 23.778 8.70822 23.5373 7.65772C23.4263 7.17072 23.3858 6.71222 23.509 6.35372ZM21.8295 8.73922C21.699 8.47522 21.5525 7.47847 21.9225 7.20272C22.2668 6.94597 22.5425 7.44722 22.7873 7.84347C22.902 8.57247 23.3415 9.22097 23.6508 9.59097C23.8918 9.87922 24.0998 10.1277 24.16 10.4162C24.2348 10.7727 24.3368 11.3575 24.409 11.7832C24.1882 11.657 23.9653 11.5346 23.7403 11.416C23.5399 10.9389 23.3248 10.4682 23.0953 10.0045C22.8698 9.54472 22.147 9.38022 21.8295 8.73922ZM24.546 19.39C23.9013 19.698 23.2353 19.7252 22.1858 19.7252C19.7985 19.7252 17.428 18.537 16.685 16.8657C16.5588 16.5822 16.6803 16.1797 16.6803 15.6445C16.6803 14.3635 16.7115 13.6057 17.3603 13.6057C17.6718 13.6057 18.6553 14.3557 18.6553 16.2592L21.0203 17.327C21.7103 16.6195 23.672 15.5057 23.672 15.5057C23.3635 15.1135 23.5303 13.9947 23.5303 13.9947C22.8835 13.9115 21.508 13.2597 21.034 12.348C20.4288 12.8697 17.6175 13.841 17.436 12.6137C17.3823 12.2505 17.7085 12.1225 17.837 12.0902C19.1758 11.7522 19.8228 11.3632 20.2835 11.0827C20.6193 10.878 20.9365 10.7077 21.198 10.7077C21.4173 10.7077 21.7568 10.8175 22.1515 11.0047C23.2733 11.5352 25.1413 12.3702 26.8025 13.8247C26.9573 13.9605 27.154 14.2582 27.2168 14.4497C27.783 16.181 25.4413 18.9615 24.546 19.39ZM23.1365 15.5275C22.6858 15.7657 21.6335 16.3495 21.0025 16.9222L19.2525 15.7942C19.2525 14.8397 19.0453 14.1492 18.7428 13.7025C19.5085 13.6532 20.4558 13.4527 20.9365 13.1955C21.276 13.5495 22.1398 14.3542 23.084 14.482C23.0485 14.7592 23.0253 15.1812 23.1365 15.5275Z" fill="#2C2C2C"/>
<path d="M27.7165 14.871V12.871H25.3711L25.7416 15.187L27.7165 14.871ZM27.719 14.871V16.871H29.8069L29.7172 14.785L27.719 14.871ZM27.1878 9.57172L25.2345 10.0013L25.2348 10.0029L27.1878 9.57172ZM26.119 7.91397L24.5625 9.16987L24.5629 9.17036L26.119 7.91397ZM24.8245 6.11697L26.5641 5.13005L26.5635 5.12904L24.8245 6.11697ZM23.6658 5.55597L24.385 7.42219L24.3871 7.42138L23.6658 5.55597ZM22.7625 7.27297L21.2763 8.61128L24.5917 12.2932L24.7614 7.34147L22.7625 7.27297ZM21.6135 6.93622L22.7038 8.61291L22.7051 8.61206L21.6135 6.93622ZM21.3993 9.21297L23.2162 8.37698L23.216 8.3767L21.3993 9.21297ZM22.2953 10.2367L21.0486 11.8006L21.0489 11.8009L22.2953 10.2367ZM22.8295 10.7935L24.6631 9.99464L24.6558 9.97794L24.6482 9.96138L22.8295 10.7935ZM22.9193 10.9995L22.0437 12.7976L26.9185 15.1714L24.7528 10.2006L22.9193 10.9995ZM22.283 10.695L23.1395 8.88764L23.1388 8.8873L22.283 10.695ZM20.1213 10.778L21.1607 12.4866L21.1631 12.4852L20.1213 10.778ZM17.7628 11.7625L18.2512 13.7019L18.2524 13.7016L17.7628 11.7625ZM17.003 12.307L18.8192 13.1446L18.8195 13.144L17.003 12.307ZM17.0863 13.2327L15.2957 14.1236L15.3013 14.135L15.3072 14.1464L17.0863 13.2327ZM17.091 13.242L17.572 15.1833L20.0242 14.5757L18.8701 12.3283L17.091 13.242ZM16.2925 16.2345L18.2735 16.5094L18.2736 16.5088L16.2925 16.2345ZM16.4243 17.2277L14.7391 18.3049L14.7396 18.3056L16.4243 17.2277ZM24.9205 20.1285L24.0606 18.3228L24.0599 18.3231L24.9205 20.1285ZM27.7188 15.7422L25.738 15.4658L25.7376 15.4684L27.7188 15.7422ZM24.4655 6.20772L26.2184 5.24472L26.2183 5.24448L24.4655 6.20772ZM25.802 8.13747L24.2457 9.39362L24.2464 9.39443L25.802 8.13747ZM26.8025 9.62922L28.7555 9.198L28.7553 9.19731L26.8025 9.62922ZM27.2325 13.934L25.6424 15.147L29.6325 20.3779L29.2288 13.8112L27.2325 13.934ZM25.3363 12.3495L23.362 12.6693L23.5035 13.5429L24.2452 14.0256L25.3363 12.3495ZM24.853 9.89947L22.902 10.3394L22.9025 10.3416L24.853 9.89947ZM23.5373 7.65772L21.5873 8.10218L21.5878 8.10449L23.5373 7.65772ZM21.9225 7.20272L23.1177 8.80636L23.1182 8.80593L21.9225 7.20272ZM22.7873 7.84347L24.763 7.53249L24.7004 7.1349L24.4889 6.79246L22.7873 7.84347ZM23.6508 9.59097L22.1162 10.8736L22.1164 10.8738L23.6508 9.59097ZM24.16 10.4162L22.2023 10.8251L22.2026 10.8267L24.16 10.4162ZM24.409 11.7832L23.4164 13.5195L27.0885 15.6189L26.3808 11.4486L24.409 11.7832ZM23.7403 11.416L21.8963 12.1905L22.1738 12.8512L22.8078 13.1853L23.7403 11.416ZM23.0953 10.0045L21.2996 10.8852L21.3028 10.8916L23.0953 10.0045ZM16.685 16.8657L18.5126 16.0532L18.5121 16.0521L16.685 16.8657ZM18.6553 16.2592H16.6553V17.5506L17.8323 18.0821L18.6553 16.2592ZM21.0203 17.327L20.1973 19.1498L21.474 19.7262L22.4521 18.7234L21.0203 17.327ZM23.672 15.5057L24.6595 17.245L26.6815 16.097L25.2441 14.2693L23.672 15.5057ZM23.5303 13.9947L25.5084 14.2896L25.8092 12.2716L23.7856 12.0111L23.5303 13.9947ZM21.034 12.348L22.8086 11.4254L21.6426 9.18278L19.7282 10.8331L21.034 12.348ZM17.436 12.6137L19.4145 12.3211L19.4145 12.321L17.436 12.6137ZM17.837 12.0902L18.3239 14.0301L18.3266 14.0294L17.837 12.0902ZM20.2835 11.0827L21.3235 12.791L21.3248 12.7903L20.2835 11.0827ZM22.1515 11.0047L21.2944 12.8117L21.2965 12.8127L22.1515 11.0047ZM26.8025 13.8247L28.1214 12.3212L28.12 12.32L26.8025 13.8247ZM27.2168 14.4497L29.1177 13.828L29.1173 13.827L27.2168 14.4497ZM21.0025 16.9222L19.919 18.6033L21.2097 19.4352L22.3467 18.4031L21.0025 16.9222ZM19.2525 15.7942H17.2525V16.8846L18.169 17.4753L19.2525 15.7942ZM18.7428 13.7025L18.6144 11.7066L15.1278 11.9308L17.0867 14.8238L18.7428 13.7025ZM20.9365 13.1955L22.38 11.8111L21.3302 10.7165L19.9929 11.4321L20.9365 13.1955ZM23.084 14.482L25.0678 14.736L25.32 12.7663L23.3522 12.5L23.084 14.482ZM27.7165 16.871H27.719V12.871H27.7165V16.871ZM29.7172 14.785C29.6829 13.9881 29.5355 10.9285 29.1407 9.14051L25.2348 10.0029C25.5395 11.3829 25.6827 14.0689 25.7209 14.9569L29.7172 14.785ZM29.1411 9.14214C29.0068 8.53156 28.6989 8.02864 28.469 7.69256C28.2279 7.3401 27.9302 6.97352 27.6751 6.65758L24.5629 9.17036C24.8486 9.52418 25.0348 9.75684 25.1676 9.95101C25.2292 10.0411 25.2574 10.0918 25.2675 10.1119C25.278 10.1328 25.2544 10.0921 25.2345 10.0013L29.1411 9.14214ZM27.6755 6.65807C27.2231 6.09735 26.8374 5.61191 26.5641 5.13005L23.085 7.1039C23.5466 7.91754 24.146 8.6536 24.5625 9.16987L27.6755 6.65807ZM26.5635 5.12904C26.2739 4.61936 25.8245 4.0977 25.1685 3.77992C24.4704 3.44178 23.6772 3.40724 22.9445 3.69057L24.3871 7.42138C24.0856 7.53796 23.7248 7.52517 23.4248 7.37984C23.2945 7.31675 23.2075 7.24395 23.1567 7.19258C23.1065 7.1417 23.0866 7.10671 23.0856 7.1049L26.5635 5.12904ZM22.9466 3.68976C21.3964 4.28717 20.8074 5.92975 20.7637 7.20448L24.7614 7.34147C24.7672 7.16971 24.8066 7.0997 24.7993 7.11307C24.7948 7.12129 24.7704 7.1639 24.7106 7.22127C24.6506 7.27885 24.5447 7.36062 24.385 7.42219L22.9466 3.68976ZM24.2488 5.93467C23.9084 5.55666 23.3677 5.05562 22.5922 4.8717C21.6874 4.65713 20.9575 4.9767 20.5219 5.26038L22.7051 8.61206C22.6678 8.63635 22.5457 8.71112 22.352 8.75958C22.139 8.81287 21.9011 8.81876 21.6691 8.76375C21.261 8.66695 21.1259 8.44429 21.2763 8.61128L24.2488 5.93467ZM20.5232 5.25954C19.6384 5.83489 19.2682 6.77636 19.1669 7.54263C19.059 8.35804 19.205 9.22905 19.5825 10.0492L23.216 8.3767C23.1196 8.16714 23.1339 8.05503 23.1323 8.06712C23.1316 8.07296 23.1233 8.13289 23.0726 8.22681C23.0228 8.31927 22.9135 8.47659 22.7038 8.61291L20.5232 5.25954ZM19.5824 10.049C20.0278 11.0171 20.747 11.5602 21.0486 11.8006L23.5419 8.6728C23.2151 8.41227 23.2207 8.38689 23.2162 8.37698L19.5824 10.049ZM21.0489 11.8009C21.1115 11.8508 21.1502 11.8817 21.1832 11.9093C21.2148 11.9357 21.2234 11.9443 21.2198 11.9407C21.2158 11.9369 21.1881 11.9097 21.1507 11.8608C21.1123 11.8106 21.0596 11.7321 21.0108 11.6256L24.6482 9.96138C24.3134 9.22953 23.6542 8.76222 23.5416 8.67257L21.0489 11.8009ZM20.996 11.5923L21.0857 11.7983L24.7528 10.2006L24.6631 9.99464L20.996 11.5923ZM23.7949 9.20134C23.554 9.08403 23.3301 8.97796 23.1395 8.88764L21.4266 12.5023C21.619 12.5935 21.8246 12.6909 22.0437 12.7976L23.7949 9.20134ZM23.1388 8.8873C22.5732 8.61956 21.9158 8.37697 21.1813 8.37697V12.377C21.1059 12.377 21.0761 12.3639 21.1147 12.375C21.1592 12.3878 21.2558 12.4215 21.4273 12.5026L23.1388 8.8873ZM21.1813 8.37697C20.1354 8.37697 19.3822 8.88601 19.0795 9.07072L21.1631 12.4852C21.2101 12.4565 21.2479 12.4335 21.2835 12.4121C21.3185 12.3912 21.3459 12.3752 21.3688 12.3623C21.4157 12.3358 21.4302 12.3299 21.425 12.3322C21.4168 12.3357 21.385 12.3485 21.3354 12.3596C21.284 12.3711 21.2308 12.377 21.1813 12.377V8.37697ZM19.0818 9.06931C18.8577 9.20566 18.67 9.31862 18.4111 9.43718C18.1533 9.55518 17.7943 9.69175 17.2732 9.82332L18.2524 13.7016C19.7872 13.3141 20.6111 12.821 21.1607 12.4866L19.0818 9.06931ZM17.2744 9.82302C16.5305 10.0104 15.6417 10.4824 15.1866 11.47L18.8195 13.144C18.7192 13.3615 18.5745 13.5101 18.4518 13.598C18.3368 13.6804 18.2548 13.701 18.2512 13.7019L17.2744 9.82302ZM15.1869 11.4693C14.7271 12.4662 14.9563 13.4415 15.2957 14.1236L18.8769 12.3418C18.8715 12.3309 18.9121 12.4068 18.9255 12.5562C18.9403 12.7203 18.9175 12.9315 18.8192 13.1446L15.1869 11.4693ZM15.3072 14.1464L15.3119 14.1556L18.8701 12.3283L18.8654 12.3191L15.3072 14.1464ZM16.61 11.3007C15.8652 11.4852 15.2158 11.9211 14.8027 12.6122C14.4463 13.2085 14.3706 13.8278 14.3454 14.2072C14.3203 14.5841 14.335 15.0193 14.3381 15.2658C14.3419 15.5695 14.3361 15.7817 14.3114 15.9602L18.2736 16.5088C18.3417 16.0174 18.342 15.5553 18.3378 15.2157C18.3328 14.8189 18.3253 14.6418 18.3366 14.4727C18.3476 14.3062 18.3668 14.4459 18.2361 14.6645C18.1597 14.7923 18.0479 14.9209 17.903 15.0242C17.7623 15.1244 17.6381 15.1669 17.572 15.1833L16.61 11.3007ZM14.3115 15.9595C14.27 16.2587 14.062 17.2455 14.7391 18.3049L18.1094 16.1506C18.132 16.1858 18.1679 16.2514 18.1984 16.3442C18.2294 16.4389 18.2438 16.529 18.2484 16.6031C18.2525 16.6701 18.2473 16.708 18.2492 16.6897C18.2501 16.6806 18.252 16.6642 18.2563 16.6324C18.2622 16.5895 18.2647 16.5734 18.2735 16.5094L14.3115 15.9595ZM14.7396 18.3056C15.6027 19.6547 16.6388 20.7433 17.9671 21.4755C19.2969 22.2086 20.7663 22.5 22.36 22.5V18.5C21.2607 18.5 20.4961 18.3021 19.8981 17.9725C19.2986 17.642 18.7133 17.0945 18.109 16.1499L14.7396 18.3056ZM22.36 22.5C23.3879 22.5 24.5913 22.501 25.7812 21.9338L24.0599 18.3231C23.8002 18.4469 23.4847 18.5 22.36 18.5V22.5ZM25.7805 21.9342C26.3204 21.677 26.7877 21.2651 27.137 20.9068C27.5159 20.5183 27.888 20.0551 28.2234 19.5596C28.8677 18.6077 29.519 17.3251 29.6999 16.016L25.7376 15.4684C25.6735 15.9321 25.3782 16.6271 24.9109 17.3174C24.6905 17.643 24.4655 17.917 24.2732 18.1143C24.0513 18.3419 23.9732 18.3644 24.0606 18.3228L25.7805 21.9342ZM29.6996 16.0186C29.7684 15.5257 29.7682 15.0347 29.6914 14.555L25.7416 15.187C25.7509 15.2447 25.7562 15.3352 25.738 15.4658L29.6996 16.0186ZM25.4003 7.00415C25.3227 7.22997 24.9527 7.85077 24.1052 7.90289C23.3679 7.94823 22.8972 7.50649 22.7128 7.17097L26.2183 5.24448C25.8149 4.51046 24.969 3.84222 23.8597 3.91043C22.6401 3.98542 21.9014 4.87848 21.6177 5.7033L25.4003 7.00415ZM22.7126 7.17073C23.1744 8.01128 23.7708 8.80524 24.2457 9.39362L27.3583 6.88132C26.9397 6.36271 26.5131 5.78117 26.2184 5.24472L22.7126 7.17073ZM24.2464 9.39443C24.4855 9.69037 24.6742 9.92588 24.8136 10.1229C24.8816 10.2189 24.915 10.2741 24.9269 10.2957C24.9488 10.3354 24.8902 10.244 24.8497 10.0611L28.7553 9.19731C28.6197 8.58426 28.2502 8.05456 28.0785 7.81197C27.8517 7.49156 27.5783 7.15357 27.3577 6.88051L24.2464 9.39443ZM24.8496 10.0604C25.0494 10.9654 25.1559 12.7498 25.2363 14.0567L29.2288 13.8112C29.1591 12.6787 29.0407 10.4895 28.7555 9.198L24.8496 10.0604ZM28.8227 12.721C28.1078 11.7838 26.9736 11.0289 26.4274 10.6733L24.2452 14.0256C24.5116 14.199 24.8073 14.4002 25.0792 14.6154C25.3644 14.8411 25.5491 15.0247 25.6424 15.147L28.8227 12.721ZM27.3105 12.0296C27.2264 11.5103 27.0687 10.6272 26.8035 9.45735L22.9025 10.3416C23.1473 11.4217 23.2897 12.2227 23.362 12.6693L27.3105 12.0296ZM26.804 9.45951C26.6858 8.93507 26.4525 8.52904 26.2569 8.24509C26.0792 7.98696 25.86 7.73266 25.7618 7.61414C25.5073 7.30708 25.4944 7.24445 25.4867 7.21095L21.5878 8.10449C21.8209 9.12149 22.381 9.80337 22.6818 10.1664C22.8612 10.3829 22.9152 10.445 22.9624 10.5136C22.9919 10.5564 22.9354 10.4875 22.902 10.3394L26.804 9.45951ZM25.4873 7.21327C25.4484 7.04272 25.436 6.93587 25.4338 6.87958C25.4328 6.85434 25.4345 6.85349 25.4323 6.87231C25.4301 6.89144 25.4229 6.93835 25.4004 7.00396L21.6177 5.70349C21.3036 6.61718 21.4597 7.54223 21.5873 8.10218L25.4873 7.21327ZM23.6224 7.85295C23.6748 7.9589 23.6959 8.03182 23.698 8.03884C23.7033 8.05669 23.7029 8.05845 23.7 8.04371C23.6937 8.01121 23.6886 7.96744 23.6879 7.93315C23.6869 7.88691 23.6945 7.93015 23.6664 8.03599C23.6453 8.11515 23.5351 8.49526 23.1177 8.80636L20.7274 5.59909C20.125 6.04806 19.8943 6.65617 19.8007 7.00803C19.7001 7.38656 19.6831 7.74719 19.6888 8.01761C19.6948 8.29998 19.7277 8.57213 19.774 8.80938C19.8127 9.00804 19.8872 9.32325 20.0366 9.62549L23.6224 7.85295ZM23.1182 8.80593C22.8094 9.03624 22.3092 9.21685 21.7411 9.09262C21.2827 8.99235 21.0285 8.74302 20.9771 8.69151C20.9096 8.62399 20.8922 8.58779 20.932 8.64769C20.9729 8.70911 21.0032 8.76086 21.0857 8.89448L24.4889 6.79246C24.4419 6.71642 24.1597 6.21771 23.8074 5.86494C23.6133 5.67067 23.2104 5.31941 22.5958 5.18498C21.8716 5.0266 21.2077 5.24083 20.7268 5.59951L23.1182 8.80593ZM20.8116 8.15446C21.0096 9.4122 21.7187 10.398 22.1162 10.8736L25.1854 8.30836C25.0955 8.20081 24.9895 8.05517 24.9031 7.89635C24.8144 7.73327 24.775 7.60873 24.763 7.53249L20.8116 8.15446ZM22.1164 10.8738C22.1473 10.9108 22.173 10.9416 22.1975 10.9712C22.2216 11.0003 22.2412 11.0245 22.258 11.0456C22.2928 11.0894 22.3068 11.1095 22.3101 11.1144C22.3129 11.1187 22.2966 11.0951 22.2749 11.0482C22.2522 10.9993 22.2228 10.9236 22.2023 10.8251L26.1178 10.0074C25.9345 9.12947 25.328 8.47893 25.1851 8.30812L22.1164 10.8738ZM22.2026 10.8267C22.2682 11.1393 22.364 11.6865 22.4372 12.1178L26.3808 11.4486C26.3095 11.0284 26.2014 10.4061 26.1175 10.0058L22.2026 10.8267ZM25.4017 10.0469C25.161 9.90936 24.918 9.77591 24.6728 9.64667L22.8078 13.1853C23.0126 13.2932 23.2155 13.4046 23.4164 13.5195L25.4017 10.0469ZM25.5842 10.6414C25.3679 10.1263 25.1356 9.61804 24.8877 9.1173L21.3028 10.8916C21.514 11.3184 21.712 11.7515 21.8963 12.1905L25.5842 10.6414ZM24.8909 9.12374C24.6695 8.67238 24.3635 8.36984 24.1534 8.1886C23.9623 8.02375 23.737 7.86813 23.6645 7.81599C23.427 7.64525 23.5414 7.68939 23.6217 7.85151L20.0373 9.62693C20.4351 10.4301 21.0697 10.8769 21.3294 11.0636C21.4138 11.1244 21.446 11.1467 21.4943 11.1822C21.5336 11.2111 21.5439 11.2201 21.5406 11.2173C21.5394 11.2163 21.4083 11.1067 21.2996 10.8852L24.8909 9.12374ZM23.6839 17.5853C23.5052 17.6707 23.2844 17.7252 22.1858 17.7252V21.7252C23.1861 21.7252 24.2974 21.7252 25.4081 21.1946L23.6839 17.5853ZM22.1858 17.7252C21.3087 17.7252 20.433 17.5033 19.7334 17.1436C19.0116 16.7724 18.6424 16.3454 18.5126 16.0532L14.8575 17.6782C15.4706 19.0573 16.6582 20.0601 17.9042 20.7008C19.1724 21.353 20.6756 21.7252 22.1858 21.7252V17.7252ZM18.5121 16.0521C18.6012 16.2524 18.6206 16.4158 18.6256 16.4829C18.63 16.5426 18.6251 16.5631 18.6302 16.4929C18.6324 16.4617 18.6356 16.4249 18.6405 16.3698C18.645 16.3194 18.6512 16.2514 18.6569 16.1811C18.6684 16.0369 18.6803 15.8528 18.6803 15.6445H14.6803C14.6803 15.8189 14.6653 15.8612 14.6405 16.2061C14.6258 16.4097 14.572 17.0371 14.858 17.6793L18.5121 16.0521ZM18.6803 15.6445C18.6803 15.3226 18.6825 15.0826 18.6926 14.8894C18.7032 14.6861 18.7188 14.6238 18.7153 14.6377C18.7147 14.64 18.6523 14.9095 18.3706 15.1819C18.2206 15.327 18.0381 15.443 17.8371 15.5172C17.6426 15.5889 17.474 15.6057 17.3603 15.6057V11.6057C16.7714 11.6057 16.1185 11.7953 15.59 12.3064C15.1201 12.7608 14.9282 13.2999 14.8387 13.6517C14.6747 14.2965 14.6803 15.089 14.6803 15.6445H18.6803ZM17.3603 15.6057C17.0344 15.6057 16.8061 15.5178 16.7196 15.4809C16.6111 15.4345 16.5421 15.3881 16.5089 15.3637C16.4408 15.3136 16.4364 15.2921 16.4626 15.3313C16.5039 15.393 16.6553 15.6599 16.6553 16.2592H20.6553C20.6553 14.955 20.3149 13.8952 19.7865 13.106C19.528 12.7198 19.2193 12.3919 18.8792 12.1416C18.6211 11.9518 18.0753 11.6057 17.3603 11.6057V15.6057ZM17.8323 18.0821L20.1973 19.1498L21.8433 15.5041L19.4783 14.4364L17.8323 18.0821ZM22.4521 18.7234C22.6112 18.5602 23.0799 18.2193 23.6784 17.8385C23.9446 17.6692 24.1928 17.519 24.3749 17.411C24.4656 17.3573 24.5388 17.3146 24.5885 17.2858C24.6133 17.2715 24.6321 17.2606 24.6442 17.2537C24.6503 17.2502 24.6546 17.2477 24.6572 17.2463C24.6585 17.2455 24.6593 17.245 24.6597 17.2448C24.6599 17.2447 24.66 17.2447 24.6599 17.2447C24.6599 17.2447 24.6599 17.2447 24.6598 17.2448C24.6597 17.2448 24.6597 17.2449 24.6596 17.2449C24.6596 17.2449 24.6595 17.245 23.672 15.5057C22.6846 13.7665 22.6845 13.7665 22.6844 13.7666C22.6843 13.7666 22.6842 13.7667 22.6841 13.7668C22.6839 13.7669 22.6837 13.767 22.6834 13.7671C22.6829 13.7674 22.6823 13.7678 22.6815 13.7682C22.68 13.7691 22.678 13.7702 22.6756 13.7716C22.6707 13.7744 22.6639 13.7783 22.6554 13.7831C22.6385 13.7928 22.6145 13.8066 22.5843 13.8241C22.524 13.859 22.4386 13.9089 22.3345 13.9706C22.1272 14.0935 21.8419 14.266 21.5314 14.4636C20.9765 14.8165 20.1193 15.3862 19.5885 15.9306L22.4521 18.7234ZM25.2441 14.2693C25.3705 14.4301 25.4301 14.5715 25.4553 14.6401C25.4818 14.7124 25.4896 14.758 25.4903 14.7625C25.4909 14.7657 25.4844 14.7208 25.4854 14.6221C25.4862 14.5326 25.4926 14.4414 25.4996 14.3695C25.503 14.3352 25.5061 14.3089 25.508 14.294C25.5089 14.2866 25.5095 14.2822 25.5096 14.2813C25.5097 14.2808 25.5096 14.2812 25.5094 14.2826C25.5094 14.2833 25.5092 14.2842 25.509 14.2854C25.509 14.2859 25.5089 14.2866 25.5088 14.2873C25.5087 14.2876 25.5087 14.288 25.5086 14.2884C25.5086 14.2886 25.5085 14.2889 25.5085 14.289C25.5085 14.2893 25.5084 14.2896 23.5303 13.9947C21.5521 13.6999 21.5521 13.7002 21.552 13.7005C21.552 13.7006 21.552 13.7009 21.5519 13.7012C21.5519 13.7016 21.5518 13.7021 21.5517 13.7026C21.5516 13.7036 21.5514 13.7046 21.5513 13.7057C21.5509 13.708 21.5506 13.7105 21.5502 13.7133C21.5494 13.7189 21.5484 13.7257 21.5473 13.7335C21.5452 13.7492 21.5425 13.7692 21.5395 13.7932C21.5334 13.8409 21.5259 13.9051 21.5185 13.9818C21.5038 14.1319 21.4878 14.345 21.4856 14.5841C21.4834 14.8142 21.4931 15.1225 21.5491 15.4458C21.5974 15.7242 21.7181 16.2566 22.1 16.7421L25.2441 14.2693ZM23.7856 12.0111C23.8324 12.0171 23.7858 12.0151 23.6493 11.9628C23.5272 11.916 23.3822 11.8476 23.2383 11.7623C23.0932 11.6761 22.9756 11.5882 22.8924 11.5112C22.8055 11.4306 22.7936 11.3966 22.8086 11.4254L19.2595 13.2705C19.7433 14.2011 20.568 14.8288 21.1964 15.2018C21.8291 15.5774 22.5971 15.8911 23.2749 15.9784L23.7856 12.0111ZM19.7282 10.8331C19.8022 10.7693 19.8274 10.7642 19.7516 10.8058C19.6914 10.8388 19.5988 10.884 19.4782 10.9338C19.2315 11.0357 18.9469 11.1248 18.6971 11.173C18.5744 11.1966 18.4842 11.2058 18.4278 11.2076C18.3648 11.2097 18.3868 11.2014 18.467 11.2211C18.5469 11.2407 18.7646 11.3087 18.9892 11.5202C19.2399 11.7563 19.3752 12.0556 19.4145 12.3211L15.4575 12.9063C15.5422 13.4787 15.8051 14.0161 16.2467 14.432C16.662 14.8232 17.134 15.0125 17.5123 15.1055C18.2259 15.2809 18.9488 15.1982 19.4551 15.1005C20.0065 14.9941 20.5495 14.8192 21.0058 14.6306C21.41 14.4636 21.9402 14.2073 22.3399 13.8628L19.7282 10.8331ZM19.4145 12.321C19.4484 12.5503 19.4314 12.8302 19.3189 13.1159C19.2099 13.3927 19.0452 13.5899 18.9027 13.7175C18.6544 13.9399 18.4171 14.0067 18.3239 14.0301L17.3502 10.1504C17.1284 10.206 16.6637 10.3529 16.2337 10.7382C15.7081 11.209 15.3201 11.9775 15.4576 12.9065L19.4145 12.321ZM18.3266 14.0294C19.9235 13.6262 20.7595 13.1344 21.3235 12.791L19.2435 9.3744C19.0269 9.50626 18.8362 9.62034 18.5666 9.74204C18.2955 9.86444 17.9115 10.0087 17.3474 10.1511L18.3266 14.0294ZM21.3248 12.7903C21.396 12.7468 21.4519 12.714 21.4981 12.6885C21.5448 12.6628 21.5698 12.651 21.5782 12.6473C21.5877 12.6431 21.5621 12.6554 21.508 12.6698C21.4545 12.6841 21.3464 12.7077 21.198 12.7077V8.70772C20.6631 8.70772 20.2208 8.87373 19.9591 8.98961C19.6799 9.11317 19.4249 9.26381 19.2422 9.37519L21.3248 12.7903ZM21.198 12.7077C21.1431 12.7077 21.0997 12.7044 21.0701 12.7011C21.0401 12.6979 21.0187 12.6942 21.0069 12.6919C20.985 12.6877 20.9846 12.6862 21.0088 12.6938C21.0318 12.7011 21.0682 12.7138 21.1185 12.734C21.1683 12.7541 21.2271 12.7798 21.2944 12.8117L23.0087 9.19771C22.5896 8.99894 21.8991 8.70772 21.198 8.70772V12.7077ZM21.2965 12.8127C22.4617 13.3638 24.0688 14.0894 25.4851 15.3295L28.12 12.32C26.2138 10.651 24.0848 9.70664 23.0066 9.19671L21.2965 12.8127ZM25.4836 15.3282C25.4171 15.2699 25.3834 15.2284 25.3801 15.2244C25.3726 15.2153 25.3727 15.2146 25.3766 15.2205C25.3805 15.2265 25.3796 15.2259 25.3737 15.2147C25.3712 15.2097 25.3449 15.1602 25.3162 15.0725L29.1173 13.827C29.0081 13.4935 28.8381 13.2029 28.7117 13.0121C28.5845 12.8201 28.384 12.5516 28.1214 12.3212L25.4836 15.3282ZM25.3159 15.0715C25.2835 14.9726 25.3377 15.0214 25.2493 15.3148C25.166 15.5911 24.9979 15.9405 24.752 16.3193C24.5105 16.6913 24.2324 17.0325 23.9831 17.2903C23.688 17.5954 23.5752 17.6374 23.6826 17.586L25.4095 21.194C25.9645 20.9283 26.4801 20.4621 26.8582 20.0712C27.2821 19.633 27.7219 19.0906 28.1069 18.4974C28.4876 17.9112 28.8547 17.2141 29.0792 16.4687C29.2986 15.7404 29.4332 14.7925 29.1177 13.828L25.3159 15.0715ZM22.2019 13.7593C21.7656 13.9899 20.4999 14.6774 19.6583 15.4413L22.3467 18.4031C22.5289 18.2378 22.8299 18.0234 23.1922 17.7985C23.5379 17.5838 23.8702 17.4019 24.0711 17.2957L22.2019 13.7593ZM22.0861 15.2412L20.3361 14.1132L18.169 17.4753L19.919 18.6033L22.0861 15.2412ZM21.2525 15.7942C21.2525 14.5759 20.9912 13.4559 20.3989 12.5811L17.0867 14.8238C17.0994 14.8425 17.2525 15.1036 17.2525 15.7942H21.2525ZM18.8711 15.6983C19.3637 15.6667 19.896 15.5885 20.386 15.4781C20.8449 15.3747 21.4056 15.2128 21.8801 14.9589L19.9929 11.4321C20.0065 11.4248 19.9719 11.4439 19.8701 11.4776C19.7752 11.509 19.6524 11.5431 19.507 11.5759C19.2118 11.6424 18.8876 11.689 18.6144 11.7066L18.8711 15.6983ZM19.4931 14.5798C19.7167 14.813 20.1196 15.203 20.6427 15.5663C21.1452 15.9153 21.901 16.3401 22.8159 16.4639L23.3522 12.5C23.3522 12.5 23.3493 12.4996 23.3434 12.4983C23.3375 12.497 23.3288 12.4948 23.3173 12.4913C23.294 12.4842 23.2619 12.4725 23.2211 12.4541C23.1371 12.4162 23.0365 12.3588 22.9243 12.2809C22.6946 12.1213 22.4958 11.9319 22.38 11.8111L19.4931 14.5798ZM21.1002 14.228C21.0564 14.5703 20.9811 15.3572 21.2324 16.1393L25.0407 14.9157C25.0478 14.9381 25.052 14.9549 25.0542 14.965C25.0565 14.9752 25.0572 14.9807 25.0572 14.9808C25.0573 14.981 25.0568 14.9774 25.0562 14.9698C25.0556 14.9623 25.0551 14.952 25.0549 14.939C25.0537 14.8808 25.0586 14.8083 25.0678 14.736L21.1002 14.228Z" fill="#D91D43" mask="url(#path-3-inside-1_378_80)"/>
</g>
<defs>
<filter id="filter0_b_378_80" x="-6" y="-6" width="99" height="37" filterUnits="userSpaceOnUse" color-interpolation-filters="sRGB">
<feFlood flood-opacity="0" result="BackgroundImageFix"/>
<feGaussianBlur in="BackgroundImageFix" stdDeviation="3"/>
<feComposite in2="SourceAlpha" operator="in" result="effect1_backgroundBlur_378_80"/>
<feBlend mode="normal" in="SourceGraphic" in2="effect1_backgroundBlur_378_80" result="shape"/>
</filter>
</defs>
</svg>
