<svg width="20" height="20" viewBox="0 0 20 20" fill="none" xmlns="http://www.w3.org/2000/svg">
<circle cx="10" cy="10" r="10" fill="#B8BECA"/>
<path d="M3 8.74667V12.5C3 13.163 3.27656 13.7989 3.76884 14.2678C4.26113 14.7366 4.92881 15 5.625 15H14.375C15.0712 15 15.7389 14.7366 16.2312 14.2678C16.7234 13.7989 17 13.163 17 12.5V8.74667L10.3587 11.5933C10.2459 11.6416 10.1237 11.6666 10 11.6666C9.87632 11.6666 9.75405 11.6416 9.64125 11.5933L3 8.74667ZM3.06475 6.94667L10 9.92L16.9353 6.94667C16.8035 6.39379 16.4783 5.89998 16.0131 5.54627C15.5479 5.19255 14.9703 4.99992 14.375 5H5.625C5.02972 4.99992 4.45208 5.19255 3.98687 5.54627C3.52166 5.89998 3.19651 6.39379 3.06475 6.94667Z" fill="white"/>
</svg>
