<svg width="22" height="22" viewBox="0 0 22 22" fill="none" xmlns="http://www.w3.org/2000/svg">
<path d="M7.25 12H14.75M7.25 16H11M1 3V19C1 19.5304 1.26339 20.0391 1.73223 20.4142C2.20107 20.7893 2.83696 21 3.5 21H18.5C19.163 21 19.7989 20.7893 20.2678 20.4142C20.7366 20.0391 21 19.5304 21 19V7.342C21 7.07556 20.9334 6.81181 20.8041 6.56624C20.6749 6.32068 20.4857 6.09824 20.2475 5.912L14.6975 1.57C14.2305 1.20466 13.6032 1.00007 12.95 1H3.5C2.83696 1 2.20107 1.21071 1.73223 1.58579C1.26339 1.96086 1 2.46957 1 3V3Z" stroke="#757575" stroke-width="2" stroke-linecap="round" stroke-linejoin="round"/>
<path d="M13.5 1V5C13.5 5.53043 13.7634 6.03914 14.2322 6.41421C14.7011 6.78929 15.337 7 16 7H21" stroke="#757575" stroke-width="2" stroke-linejoin="round"/>
</svg>
