<svg width="22" height="28" viewBox="0 0 22 28" fill="none" xmlns="http://www.w3.org/2000/svg">
<path d="M14.5354 10.4457C14.7876 10.4105 15.0406 10.3811 15.2941 10.3575C16.5268 10.2441 18.1312 10.2383 19.5275 10.7075C20.2685 10.9573 21.009 11.7278 21.3317 12.6636C21.6117 13.4813 21.5738 14.4351 20.9789 15.3055L20.8156 15.5444L20.9414 15.805C21.0292 15.9869 21.099 16.1784 21.1543 16.3713C21.2756 16.8012 21.3345 17.2832 21.3345 17.7588C21.3345 18.2344 21.2756 18.7165 21.1543 19.1464C21.0921 19.3634 21.0138 19.5747 20.9109 19.769L20.7986 19.9811L20.8939 20.2014C21.1217 20.7279 21.0498 21.355 20.8738 21.8878C20.6926 22.4144 20.4278 22.9076 20.0899 23.348L19.925 23.5629L20.0149 23.8184C20.0882 24.0265 20.1206 24.2539 20.1206 24.4806C20.1206 24.9302 19.9897 25.4159 19.7391 25.8586L19.7388 25.8591C19.2338 26.7536 18.2259 27.5 16.7619 27.5H10.5864C9.56815 27.5 8.80564 27.363 8.16868 27.1411C7.60491 26.9329 7.06605 26.6613 6.56228 26.3314L6.56232 26.3313L6.55514 26.3268L6.47045 26.2734L6.47047 26.2733L6.46555 26.2703C5.54843 25.7064 4.60071 25.1258 2.60791 24.9131C1.473 24.7902 0.5 23.8719 0.5 22.6567V15.5324C0.5 14.3166 1.47865 13.4262 2.52683 13.1381L2.52726 13.1379C4.14896 12.6906 5.50622 11.6303 6.53002 10.4765L6.53048 10.4759C7.55562 9.31729 8.21704 8.09835 8.4619 7.38845L8.46221 7.38757C8.83453 6.30159 9.11519 4.53326 9.24325 2.64625L9.2444 2.62934V2.62863C9.34889 1.25031 10.6397 0.227874 11.9881 0.566175C11.9884 0.566248 11.9887 0.566321 11.989 0.566395L12.4477 0.683491L12.4488 0.683762C13.114 0.852003 13.6834 1.33815 13.8739 2.04691C14.2494 3.45271 14.7855 6.38333 13.9795 9.83682L13.8139 10.5463L14.5354 10.4457Z" stroke="#2D7581"/>
</svg>
