<svg width="103" height="20" viewBox="0 0 103 20" fill="none" xmlns="http://www.w3.org/2000/svg">
<circle cx="10" cy="10" r="10" fill="#B8BECA"/>
<path d="M6.5 5.5C4.85 5.5 3.5 6.85 3.5 8.5C3.5 9.492 3.9885 10.375 4.7345 10.922C3.416 11.576 2.5 12.932 2.5 14.5H3.5C3.5 12.838 4.838 11.5 6.5 11.5C8.162 11.5 9.5 12.838 9.5 14.5H10.5C10.5 12.838 11.838 11.5 13.5 11.5C15.162 11.5 16.5 12.838 16.5 14.5H17.5C17.5 12.9315 16.584 11.576 15.2655 10.922C15.6473 10.6438 15.958 10.2795 16.1725 9.85869C16.387 9.43785 16.4992 8.97235 16.5 8.5C16.5 6.85 15.15 5.5 13.5 5.5C11.85 5.5 10.5 6.85 10.5 8.5C10.5 9.492 10.9885 10.375 11.7345 10.922C11.004 11.2812 10.3993 11.8531 10 12.5625C9.60072 11.8531 8.99603 11.2812 8.2655 10.922C8.64725 10.6438 8.958 10.2795 9.1725 9.85869C9.38701 9.43785 9.49921 8.97235 9.5 8.5C9.5 6.85 8.15 5.5 6.5 5.5ZM6.5 6.5C7.6115 6.5 8.5 7.3885 8.5 8.5C8.5 9.6115 7.6115 10.5 6.5 10.5C5.3885 10.5 4.5 9.6115 4.5 8.5C4.5 7.3885 5.3885 6.5 6.5 6.5ZM13.5 6.5C14.6115 6.5 15.5 7.3885 15.5 8.5C15.5 9.6115 14.6115 10.5 13.5 10.5C12.3885 10.5 11.5 9.6115 11.5 8.5C11.5 7.3885 12.3885 6.5 13.5 6.5Z" fill="white"/>
<path d="M40.1562 3.625V15H38.2031V5.1875H33.1484V15H31.1953V3.625H40.1562ZM47.0938 13.3047V9.27344C47.0938 8.97135 47.0391 8.71094 46.9297 8.49219C46.8203 8.27344 46.6536 8.10417 46.4297 7.98438C46.2109 7.86458 45.9349 7.80469 45.6016 7.80469C45.2943 7.80469 45.0286 7.85677 44.8047 7.96094C44.5807 8.0651 44.4062 8.20573 44.2812 8.38281C44.1562 8.5599 44.0938 8.76042 44.0938 8.98438H42.2188C42.2188 8.65104 42.2995 8.32812 42.4609 8.01562C42.6224 7.70312 42.8568 7.42448 43.1641 7.17969C43.4714 6.9349 43.8385 6.74219 44.2656 6.60156C44.6927 6.46094 45.1719 6.39062 45.7031 6.39062C46.3385 6.39062 46.901 6.4974 47.3906 6.71094C47.8854 6.92448 48.2734 7.2474 48.5547 7.67969C48.8411 8.10677 48.9844 8.64323 48.9844 9.28906V13.0469C48.9844 13.4323 49.0104 13.7786 49.0625 14.0859C49.1198 14.388 49.2005 14.651 49.3047 14.875V15H47.375C47.2865 14.7969 47.2161 14.5391 47.1641 14.2266C47.1172 13.9089 47.0938 13.6016 47.0938 13.3047ZM47.3672 9.85938L47.3828 11.0234H46.0312C45.6823 11.0234 45.375 11.0573 45.1094 11.125C44.8438 11.1875 44.6224 11.2812 44.4453 11.4062C44.2682 11.5312 44.1354 11.6823 44.0469 11.8594C43.9583 12.0365 43.9141 12.237 43.9141 12.4609C43.9141 12.6849 43.9661 12.8906 44.0703 13.0781C44.1745 13.2604 44.3255 13.4036 44.5234 13.5078C44.7266 13.612 44.9714 13.6641 45.2578 13.6641C45.6432 13.6641 45.9792 13.5859 46.2656 13.4297C46.5573 13.2682 46.7865 13.0729 46.9531 12.8438C47.1198 12.6094 47.2083 12.388 47.2188 12.1797L47.8281 13.0156C47.7656 13.2292 47.6589 13.4583 47.5078 13.7031C47.3568 13.9479 47.1589 14.1823 46.9141 14.4062C46.6745 14.625 46.3854 14.8047 46.0469 14.9453C45.7135 15.0859 45.3281 15.1562 44.8906 15.1562C44.3385 15.1562 43.8464 15.0469 43.4141 14.8281C42.9818 14.6042 42.6432 14.3047 42.3984 13.9297C42.1536 13.5495 42.0312 13.1198 42.0312 12.6406C42.0312 12.1927 42.1146 11.7969 42.2812 11.4531C42.4531 11.1042 42.7031 10.8125 43.0312 10.5781C43.3646 10.3438 43.7708 10.1667 44.25 10.0469C44.7292 9.92188 45.276 9.85938 45.8906 9.85938H47.3672ZM52.8438 8.17188V18.25H50.9609V6.54688H52.6953L52.8438 8.17188ZM58.3516 10.6953V10.8594C58.3516 11.474 58.2786 12.0443 58.1328 12.5703C57.9922 13.0911 57.7812 13.5469 57.5 13.9375C57.224 14.3229 56.8828 14.6224 56.4766 14.8359C56.0703 15.0495 55.6016 15.1562 55.0703 15.1562C54.5443 15.1562 54.0833 15.0599 53.6875 14.8672C53.2969 14.6693 52.9661 14.3906 52.6953 14.0312C52.4245 13.6719 52.2057 13.25 52.0391 12.7656C51.8776 12.276 51.763 11.7396 51.6953 11.1562V10.5234C51.763 9.90365 51.8776 9.34115 52.0391 8.83594C52.2057 8.33073 52.4245 7.89583 52.6953 7.53125C52.9661 7.16667 53.2969 6.88542 53.6875 6.6875C54.0781 6.48958 54.5339 6.39062 55.0547 6.39062C55.5859 6.39062 56.0573 6.49479 56.4688 6.70312C56.8802 6.90625 57.2266 7.19792 57.5078 7.57812C57.7891 7.95312 58 8.40625 58.1406 8.9375C58.2812 9.46354 58.3516 10.0495 58.3516 10.6953ZM56.4688 10.8594V10.6953C56.4688 10.3047 56.4323 9.94271 56.3594 9.60938C56.2865 9.27083 56.1719 8.97396 56.0156 8.71875C55.8594 8.46354 55.6589 8.26562 55.4141 8.125C55.1745 7.97917 54.8854 7.90625 54.5469 7.90625C54.2135 7.90625 53.9271 7.96354 53.6875 8.07812C53.4479 8.1875 53.2474 8.34115 53.0859 8.53906C52.9245 8.73698 52.7995 8.96875 52.7109 9.23438C52.6224 9.49479 52.5599 9.77865 52.5234 10.0859V11.6016C52.5859 11.9766 52.6927 12.3203 52.8438 12.6328C52.9948 12.9453 53.2083 13.1953 53.4844 13.3828C53.7656 13.5651 54.125 13.6562 54.5625 13.6562C54.901 13.6562 55.1901 13.5833 55.4297 13.4375C55.6693 13.2917 55.8646 13.0911 56.0156 12.8359C56.1719 12.5755 56.2865 12.276 56.3594 11.9375C56.4323 11.599 56.4688 11.2396 56.4688 10.8594ZM63.3594 6.54688V15H61.4688V6.54688H63.3594ZM66.1328 6.54688V8.03125H58.7422V6.54688H66.1328ZM73.1641 10.0781V11.5625H68.7891V10.0781H73.1641ZM69.3359 6.54688V15H67.4531V6.54688H69.3359ZM74.5234 6.54688V15H72.6406V6.54688H74.5234ZM80.2578 15.1562C79.6328 15.1562 79.0677 15.0547 78.5625 14.8516C78.0625 14.6432 77.6354 14.3542 77.2812 13.9844C76.9323 13.6146 76.6641 13.1797 76.4766 12.6797C76.2891 12.1797 76.1953 11.6406 76.1953 11.0625V10.75C76.1953 10.0885 76.2917 9.48958 76.4844 8.95312C76.6771 8.41667 76.9453 7.95833 77.2891 7.57812C77.6328 7.19271 78.0391 6.89844 78.5078 6.69531C78.9766 6.49219 79.4844 6.39062 80.0312 6.39062C80.6354 6.39062 81.1641 6.49219 81.6172 6.69531C82.0703 6.89844 82.4453 7.1849 82.7422 7.55469C83.0443 7.91927 83.2682 8.35417 83.4141 8.85938C83.5651 9.36458 83.6406 9.92188 83.6406 10.5312V11.3359H77.1094V9.98438H81.7812V9.83594C81.7708 9.4974 81.7031 9.17969 81.5781 8.88281C81.4583 8.58594 81.2734 8.34635 81.0234 8.16406C80.7734 7.98177 80.4401 7.89062 80.0234 7.89062C79.7109 7.89062 79.4323 7.95833 79.1875 8.09375C78.9479 8.22396 78.7474 8.41406 78.5859 8.66406C78.4245 8.91406 78.2995 9.21615 78.2109 9.57031C78.1276 9.91927 78.0859 10.3125 78.0859 10.75V11.0625C78.0859 11.4323 78.1354 11.776 78.2344 12.0938C78.3385 12.4062 78.4896 12.6797 78.6875 12.9141C78.8854 13.1484 79.125 13.3333 79.4062 13.4688C79.6875 13.599 80.0078 13.6641 80.3672 13.6641C80.8203 13.6641 81.224 13.5729 81.5781 13.3906C81.9323 13.2083 82.2396 12.9505 82.5 12.6172L83.4922 13.5781C83.3099 13.8438 83.0729 14.099 82.7812 14.3438C82.4896 14.5833 82.1328 14.7786 81.7109 14.9297C81.2943 15.0807 80.8099 15.1562 80.2578 15.1562ZM87 8.17188V18.25H85.1172V6.54688H86.8516L87 8.17188ZM92.5078 10.6953V10.8594C92.5078 11.474 92.4349 12.0443 92.2891 12.5703C92.1484 13.0911 91.9375 13.5469 91.6562 13.9375C91.3802 14.3229 91.0391 14.6224 90.6328 14.8359C90.2266 15.0495 89.7578 15.1562 89.2266 15.1562C88.7005 15.1562 88.2396 15.0599 87.8438 14.8672C87.4531 14.6693 87.1224 14.3906 86.8516 14.0312C86.5807 13.6719 86.362 13.25 86.1953 12.7656C86.0339 12.276 85.9193 11.7396 85.8516 11.1562V10.5234C85.9193 9.90365 86.0339 9.34115 86.1953 8.83594C86.362 8.33073 86.5807 7.89583 86.8516 7.53125C87.1224 7.16667 87.4531 6.88542 87.8438 6.6875C88.2344 6.48958 88.6901 6.39062 89.2109 6.39062C89.7422 6.39062 90.2135 6.49479 90.625 6.70312C91.0365 6.90625 91.3828 7.19792 91.6641 7.57812C91.9453 7.95312 92.1562 8.40625 92.2969 8.9375C92.4375 9.46354 92.5078 10.0495 92.5078 10.6953ZM90.625 10.8594V10.6953C90.625 10.3047 90.5885 9.94271 90.5156 9.60938C90.4427 9.27083 90.3281 8.97396 90.1719 8.71875C90.0156 8.46354 89.8151 8.26562 89.5703 8.125C89.3307 7.97917 89.0417 7.90625 88.7031 7.90625C88.3698 7.90625 88.0833 7.96354 87.8438 8.07812C87.6042 8.1875 87.4036 8.34115 87.2422 8.53906C87.0807 8.73698 86.9557 8.96875 86.8672 9.23438C86.7786 9.49479 86.7161 9.77865 86.6797 10.0859V11.6016C86.7422 11.9766 86.849 12.3203 87 12.6328C87.151 12.9453 87.3646 13.1953 87.6406 13.3828C87.9219 13.5651 88.2812 13.6562 88.7188 13.6562C89.0573 13.6562 89.3464 13.5833 89.5859 13.4375C89.8255 13.2917 90.0208 13.0911 90.1719 12.8359C90.3281 12.5755 90.4427 12.276 90.5156 11.9375C90.5885 11.599 90.625 11.2396 90.625 10.8594ZM96.0547 12.25L99.375 6.54688H101.258V15H99.375V9.28906L96.0547 15H94.1719V6.54688H96.0547V12.25Z" fill="#757575"/>
</svg>
