<svg width="20" height="20" viewBox="0 0 20 20" fill="none" xmlns="http://www.w3.org/2000/svg">
<circle cx="10" cy="10" r="10" fill="#B8BECA"/>
<path d="M15.4406 5.89612L13.8897 4.3466C13.7803 4.23671 13.6502 4.14953 13.507 4.09004C13.3638 4.03056 13.2103 3.99996 13.0552 4C12.7392 4 12.4421 4.12379 12.2193 4.3466L10.5504 6.01553C10.4405 6.12494 10.3533 6.25498 10.2938 6.39819C10.2344 6.54139 10.2038 6.69493 10.2038 6.85C10.2038 7.16602 10.3276 7.46311 10.5504 7.68592L11.7708 8.90631C11.4851 9.53596 11.0879 10.1088 10.5984 10.5971C10.1102 11.0878 9.53743 11.4864 8.90769 11.7738L7.68732 10.5534C7.57792 10.4435 7.44788 10.3563 7.30468 10.2968C7.16148 10.2374 7.00793 10.2068 6.85287 10.2068C6.53686 10.2068 6.23977 10.3306 6.01696 10.5534L4.3466 12.2209C4.23658 12.3305 4.14931 12.4608 4.08983 12.6042C4.03035 12.7477 3.99982 12.9015 4 13.0568C4 13.3728 4.12379 13.6699 4.3466 13.8927L5.89463 15.4408C6.24997 15.7976 6.74074 16 7.24461 16C7.35092 16 7.45286 15.9913 7.55335 15.9738C9.51642 15.6505 11.4635 14.6063 13.0348 13.0364C14.6047 11.468 15.6474 9.52233 15.9751 7.5534C16.0741 6.95194 15.8746 6.33301 15.4406 5.89612Z" fill="white"/>
</svg>
