<svg width="20" height="20" viewBox="0 0 20 20" fill="none" xmlns="http://www.w3.org/2000/svg">
<path fill-rule="evenodd" clip-rule="evenodd" d="M9.37226 2.25888e-09C9.0911 0.000313868 8.81837 0.0961066 8.59876 0.271686C8.37916 0.447264 8.22569 0.69222 8.1635 0.966423L7.81606 2.49927C7.26131 2.65985 6.73577 2.88175 6.23942 3.15328L4.91095 2.31533C4.67279 2.165 4.39057 2.10016 4.11068 2.13146C3.83078 2.16277 3.56987 2.28836 3.3708 2.48759L2.48613 3.37226C2.28725 3.57123 2.16188 3.83187 2.13058 4.11144C2.09928 4.39102 2.16391 4.67293 2.31387 4.91095L3.15182 6.24234C2.88029 6.73577 2.65985 7.26423 2.49927 7.81752L0.966423 8.16496C0.691976 8.22721 0.446836 8.38089 0.27123 8.60079C0.0956245 8.8207 -1.69714e-05 9.09376 2.25888e-09 9.37518V10.6263C-1.69714e-05 10.9077 0.0956245 11.1808 0.27123 11.4007C0.446836 11.6206 0.691976 11.7743 0.966423 11.8365L2.49927 12.1839C2.65985 12.7372 2.88029 13.2642 3.15328 13.7606L2.31387 15.0891C2.16354 15.3272 2.0987 15.6094 2.13 15.8893C2.16131 16.1692 2.2869 16.4301 2.48613 16.6292L3.37226 17.5139C3.57123 17.7127 3.83187 17.8381 4.11144 17.8694C4.39102 17.9007 4.67293 17.8361 4.91095 17.6861L6.24088 16.8482C6.73577 17.1197 7.26277 17.3401 7.81606 17.5007L8.1635 19.0336C8.22575 19.308 8.37943 19.5532 8.59933 19.7288C8.81924 19.9044 9.0923 20 9.37372 20H10.6248C10.9062 20 11.1793 19.9044 11.3992 19.7288C11.6191 19.5532 11.7728 19.308 11.835 19.0336L12.1825 17.5007C12.7372 17.3401 13.2628 17.1212 13.7591 16.8482L15.0891 17.6861C15.3271 17.8361 15.609 17.9007 15.8886 17.8694C16.1681 17.8381 16.4288 17.7127 16.6277 17.5139L17.5124 16.6292C17.7113 16.4302 17.8367 16.1696 17.868 15.89C17.8993 15.6104 17.8346 15.3285 17.6847 15.0905L16.8467 13.7606C17.1197 13.2642 17.3401 12.7387 17.5007 12.1839L19.0336 11.8365C19.308 11.7743 19.5532 11.6206 19.7288 11.4007C19.9044 11.1808 20 10.9077 20 10.6263V9.37518C20.0003 9.09351 19.9049 8.82011 19.7292 8.5999C19.5536 8.3797 19.3083 8.2258 19.0336 8.1635L17.5007 7.81752C17.3401 7.26277 17.1212 6.73723 16.8482 6.24088L17.6861 4.91241C17.8365 4.67425 17.9013 4.39203 17.87 4.11214C17.8387 3.83224 17.7131 3.57133 17.5139 3.37226L16.6292 2.48759C16.4301 2.28836 16.1692 2.16277 15.8893 2.13146C15.6094 2.10016 15.3272 2.165 15.0891 2.31533L13.7606 3.15328C13.2606 2.87805 12.7319 2.65872 12.1839 2.49927L11.835 0.966423C11.7728 0.691976 11.6191 0.446836 11.3992 0.27123C11.1793 0.0956245 10.9062 -1.69714e-05 10.6248 2.25888e-09H9.37372H9.37226ZM6.23358 4.61752C7.01686 4.06744 7.91142 3.69616 8.85401 3.52993L9.37372 1.24088H10.6248L11.1445 3.52993C12.0869 3.69591 12.9815 4.06667 13.765 4.61606L15.7504 3.36496L16.6365 4.24964L15.3839 6.23504C15.9241 7.00438 16.3007 7.89343 16.4701 8.85547L18.7591 9.37518V10.6263L16.4701 11.1445C16.3045 12.0875 15.9337 12.9826 15.3839 13.7664L16.635 15.7518L15.7504 16.6365L13.765 15.3854C12.9814 15.9344 12.0869 16.3047 11.1445 16.4701L10.6248 18.7591H9.37372L8.85401 16.4701C7.91204 16.3041 7.01799 15.9333 6.23504 15.3839L4.24964 16.6365L3.3635 15.7518L4.61606 13.7664C4.06631 12.9826 3.69552 12.0875 3.52993 11.1445L1.24088 10.6277V9.37664L3.52993 8.85693C3.69593 7.91497 4.0667 7.02093 4.61606 6.23796L3.3635 4.24817L4.24817 3.3635L6.23358 4.61606V4.61752ZM12.2277 10C12.2277 10.5904 11.9932 11.1567 11.5757 11.5742C11.1582 11.9917 10.5919 12.2263 10.0015 12.2263C9.41101 12.2263 8.84475 11.9917 8.42724 11.5742C8.00974 11.1567 7.77518 10.5904 7.77518 10C7.77518 9.40955 8.00974 8.84329 8.42724 8.42578C8.84475 8.00828 9.41101 7.77372 10.0015 7.77372C10.5919 7.77372 11.1582 8.00828 11.5757 8.42578C11.9932 8.84329 12.2277 9.40955 12.2277 10V10ZM13.5416 10C13.5416 10.9389 13.1686 11.8394 12.5047 12.5033C11.8408 13.1672 10.9404 13.5401 10.0015 13.5401C9.06255 13.5401 8.1621 13.1672 7.4982 12.5033C6.83429 11.8394 6.46131 10.9389 6.46131 10C6.46131 9.06109 6.83429 8.16064 7.4982 7.49674C8.1621 6.83283 9.06255 6.45985 10.0015 6.45985C10.9404 6.45985 11.8408 6.83283 12.5047 7.49674C13.1686 8.16064 13.5416 9.06109 13.5416 10V10Z" fill="#757575"/>
</svg>
