<svg width="20" height="20" viewBox="0 0 20 20" fill="none" xmlns="http://www.w3.org/2000/svg">
<circle cx="10" cy="10" r="10" fill="#B8BECA"/>
<path d="M10.8203 3.625L10.7188 11.7891H9.41406L9.30469 3.625H10.8203ZM9.25781 14.2734C9.25781 14.0391 9.32812 13.8411 9.46875 13.6797C9.61458 13.5182 9.82812 13.4375 10.1094 13.4375C10.3854 13.4375 10.5964 13.5182 10.7422 13.6797C10.8932 13.8411 10.9688 14.0391 10.9688 14.2734C10.9688 14.4974 10.8932 14.6901 10.7422 14.8516C10.5964 15.013 10.3854 15.0938 10.1094 15.0938C9.82812 15.0938 9.61458 15.013 9.46875 14.8516C9.32812 14.6901 9.25781 14.4974 9.25781 14.2734Z" fill="white"/>
</svg>
